<svg id="PRINT" xmlns="http://www.w3.org/2000/svg" viewBox="0 0 317.29 113.11"><defs><style>.cls-1{fill:#8f99f2;}.cls-2{font-size:71.34px;font-family:PalanquinDark-Bold, PalanquinDark Bold;font-weight:700;}.cls-3{letter-spacing:-0.02em;}.cls-4{letter-spacing:-0.01em;}</style></defs><g id="CUSTOM-group"><path d="M269,283.41a3.31,3.31,0,0,1-3.32,3.31H153.79a3.3,3.3,0,0,1-2.48-1.11v-2.2a3.32,3.32,0,0,1,3.32-3.31h111A3.31,3.31,0,0,1,269,283.41Z" transform="translate(-64.57 -193.45)"/><path d="M157.94,283.41v19.83a3.32,3.32,0,0,1-6.63,0V283.41a3.32,3.32,0,0,1,6.63,0Z" transform="translate(-64.57 -193.45)"/></g><g id="CUSTOM-group-2" data-name="CUSTOM-group"><path class="cls-1" d="M79.56,209.55v57.31l27-20.07,14.72,13.29,9.53-6.64,23.82,23.39v-66.7ZM132.89,237a6.2,6.2,0,1,1,6.19-6.2A6.2,6.2,0,0,1,132.89,237Z" transform="translate(-64.57 -193.45)"/><path d="M167.16,280.34h-9.5V209.13a3.09,3.09,0,0,0-3.1-3.09H83.35v-9.5a3.1,3.1,0,0,0-6.19,0V206h-9.5a3.09,3.09,0,0,0,0,6.18h9.5v71.22a3.09,3.09,0,0,0,3.09,3.1h71.22V296a3.1,3.1,0,1,0,6.19,0v-9.49h9.5a3.1,3.1,0,0,0,0-6.2Zm-15.69-10.57L132,250.29a3.08,3.08,0,0,0-4.37,0l-7.11,7.1-13.28-13.3a3.13,3.13,0,0,0-4.39,0L83.35,263.58V212.22h68.12Zm0,10.57H83.35v-8L105,250.66l22.58,22.58a3.09,3.09,0,0,0,4.37-4.37l-7.1-7.11,4.91-4.9,21.68,21.67Z" transform="translate(-64.57 -193.45)"/><path d="M132.89,218.42a12.38,12.38,0,1,0,12.38,12.38A12.4,12.4,0,0,0,132.89,218.42Zm0,18.58a6.2,6.2,0,1,1,6.19-6.2A6.2,6.2,0,0,1,132.89,237Z" transform="translate(-64.57 -193.45)"/></g><text class="cls-2" transform="translate(103.41 72.17)"><tspan class="cls-3">P</tspan><tspan x="36.81" y="0">i</tspan><tspan class="cls-4" x="53.51" y="0">x</tspan><tspan x="85.47" y="0">elAI </tspan></text></svg>