<svg id="PRINT" xmlns="http://www.w3.org/2000/svg" viewBox="0 0 487.11 487.11"><defs><style>.cls-1{fill:#8f99f2;}</style></defs><g id="CUSTOM-group"><path class="cls-1" d="M77,80.68V344.84l124.43-92.5,67.88,61.23L313.18,283,423,390.77V83.35ZM322.76,207.19a28.54,28.54,0,1,1,28.52-28.56A28.59,28.59,0,0,1,322.76,207.19Z" transform="translate(-7.84 -6.45)"/><path d="M480.69,407H436.91V78.74a14.26,14.26,0,0,0-14.26-14.25H94.44V20.71a14.28,14.28,0,0,0-28.56,0V64.49H22.1A14.26,14.26,0,1,0,22.1,93H65.88V421.26a14.26,14.26,0,0,0,14.26,14.25H408.39v43.75a14.26,14.26,0,1,0,28.52,0V435.51h43.78a14.28,14.28,0,0,0,0-28.55Zm-72.3-48.72-89.82-89.79a14.26,14.26,0,0,0-20.17,0l-32.75,32.72L204.42,239.9a14.3,14.3,0,0,0-20.2,0L94.44,329.69V93h314Zm0,48.72H94.44V370.05l99.88-99.89L298.4,374.25a14.26,14.26,0,0,0,20.17-20.17l-32.72-32.75,22.62-22.61,99.92,99.88Z" transform="translate(-7.84 -6.45)"/><path d="M322.76,121.56a57.07,57.07,0,1,0,57.08,57.07A57.17,57.17,0,0,0,322.76,121.56Zm0,85.63a28.54,28.54,0,1,1,28.52-28.56A28.59,28.59,0,0,1,322.76,207.19Z" transform="translate(-7.84 -6.45)"/></g></svg>